<svg width="284" height="284" viewBox="0 0 284 284" fill="none" xmlns="http://www.w3.org/2000/svg">
<circle cx="142" cy="142" r="141.5" stroke="#E5E7EB"/>
<path d="M120.6 143.7L121.02 142.792L118.358 141.561L119.713 144.162L120.6 143.7ZM139.4 152.4L138.98 153.308L140.601 154.058L140.393 152.284L139.4 152.4ZM132.8 96.1L132.8 95.1L131.676 95.1L131.807 96.2164L132.8 96.1ZM153.2 96.1L154.193 96.2164L154.324 95.1L153.2 95.1L153.2 96.1ZM146.6 152.4L145.607 152.284L145.399 154.058L147.02 153.308L146.6 152.4ZM165.4 143.7L166.287 144.162L167.642 141.561L164.98 142.792L165.4 143.7ZM143 186.7L142.113 187.162L143 188.864L143.887 187.162L143 186.7ZM120.18 144.608L138.98 153.308L139.82 151.492L121.02 142.792L120.18 144.608ZM140.393 152.284L133.793 95.9836L131.807 96.2164L138.407 152.516L140.393 152.284ZM132.8 97.1L153.2 97.1L153.2 95.1L132.8 95.1L132.8 97.1ZM152.207 95.9836L145.607 152.284L147.593 152.516L154.193 96.2164L152.207 95.9836ZM147.02 153.308L165.82 144.608L164.98 142.792L146.18 151.492L147.02 153.308ZM164.513 143.238L142.113 186.238L143.887 187.162L166.287 144.162L164.513 143.238ZM143.887 186.238L121.487 143.238L119.713 144.162L142.113 187.162L143.887 186.238Z" fill="#E5E7EB"/>
</svg>
