<svg width="366" height="362" viewBox="0 0 366 362" fill="none" xmlns="http://www.w3.org/2000/svg">
<path fill-rule="evenodd" clip-rule="evenodd" d="M307.039 241.789C339.541 175.848 310.333 94.9094 241.854 61.1562C173.375 27.403 91.3921 53.5352 58.8898 119.476C26.3875 185.417 55.5957 266.356 124.074 300.109C192.553 333.862 274.536 307.73 307.039 241.789ZM296.699 236.692C326.493 176.247 299.718 102.053 236.947 71.1125C174.175 40.1726 99.0227 64.1275 69.2293 124.572C39.436 185.018 66.2106 259.212 128.982 290.152C191.753 321.092 266.906 297.137 296.699 236.692ZM154.101 226.154L137.807 161.097L126.855 164.101L148.612 250.327L230.304 214.955L225.787 204.487L164.451 231.23L222.486 113.486L212.147 108.39L154.101 226.154Z" fill="#F9FAFB"/>
</svg>
